<?xml version="1.0" encoding="utf-8"?>
<!-- Generator: Adobe Illustrator 25.3.1, SVG Export Plug-In . SVG Version: 6.00 Build 0)  -->
<svg version="1.1" id="Layer_1" xmlns="http://www.w3.org/2000/svg" xmlns:xlink="http://www.w3.org/1999/xlink" x="0px" y="0px"
	 viewBox="0 0 512 512" style="enable-background:new 0 0 512 512;" xml:space="preserve">
<style type="text/css">
	.st0{fill:#FFFFFF;}
</style>
<path class="st0" d="M256,159.1c-53,0-95.1,43-95.1,95.1s41.2,96.9,95.1,96.9s95.1-43,95.1-95.1S309,159.1,256,159.1z M509.3,347
	l-63.2-91.9l63.1-91c6.3-9.1,1.1-21.7-9.8-23.7l-109-19.7l-19.7-109c-2-10.9-14.6-16.2-23.7-9.8l-91,64L164.1,2.7
	c-9.1-6.3-21.7-1.1-23.7,9.8l-18.8,109l-109,19.7c-10.9,1.9-16.2,14.6-9.8,22.8L65.9,256L2.7,347c-6.3,9.1-1.1,21.7,9.8,23.7
	l109,19.7l19.7,109c2,10.9,14.6,16.2,23.7,9.8l91-63.2l91,63.1c9.1,6.3,21.8,1.1,23.7-9.8l19.7-109l109-19.7
	C510.4,368.8,515.6,356.1,509.3,347z M256,383.1c-70.7,0-127.1-57.3-127.1-127.1c0-70.7,57.3-127.1,127.1-127.1
	S383.1,186.2,383.1,256C383.1,326.7,326.7,383.1,256,383.1z"/>
</svg>
